<svg xmlns="http://www.w3.org/2000/svg" width="316.8353271484375" height="296.36798095703125" viewBox="-152.91258239746094 -39.28816604614258 316.8353271484375 296.36798095703125"><title>Neo4j Graph Visualization</title><desc>Created using Neo4j (http://www.neo4j.com/)</desc><g class="layer relationships"><g class="relationship" transform="translate(-123.91257967851796 133.76039478547096) rotate(350.0783715511135)"><path class="outline" fill="#FB95AF" stroke="none" d="M 25 1 L 99.56225468043834 1 L 99.56225468043834 -1 L 25 -1 Z M 155.20287968043834 1 L 229.7651343608767 1 L 229.7651343608767 4 L 237.7651343608767 0 L 229.7651343608767 -4 L 229.7651343608767 -1 L 155.20287968043834 -1 Z"/><text text-anchor="middle" pointer-events="none" font-size="8px" fill="#000000" x="127.38256718043834" y="3" font-family="sans-serif">LOCATED_IN</text></g><g class="relationship" transform="translate(64.97552664975439 228.0797984593454) rotate(296.6143367376692)"><path class="outline" fill="#FB95AF" stroke="none" d="M 25 1 L 46.24876074373796 1 L 46.24876074373796 -1 L 25 -1 Z M 101.88938574373796 1 L 123.13814648747592 1 L 123.13814648747592 4 L 131.13814648747592 0 L 123.13814648747592 -4 L 123.13814648747592 -1 L 101.88938574373796 -1 Z"/><text text-anchor="middle" pointer-events="none" font-size="8px" fill="#000000" x="74.06907324373796" y="3" font-family="sans-serif">LOCATED_IN</text></g><g class="relationship" transform="translate(28.096852656276198 160.19688803198108) rotate(189.86583263785843)"><path class="outline" fill="#A5ABB6" stroke="none" d="M 25 1 L 44.80963219444055 1 L 44.80963219444055 -1 L 25 -1 Z M 101.48150719444055 1 L 121.2911393888811 1 L 121.2911393888811 4 L 129.2911393888811 0 L 121.2911393888811 -4 L 121.2911393888811 -1 L 101.48150719444055 -1 Z"/><text text-anchor="middle" pointer-events="none" font-size="8px" fill="#000000" x="73.14556969444055" y="3" transform="rotate(180 73.14556969444055 0)" font-family="sans-serif">MEMBER_OF</text></g><g class="relationship" transform="translate(-32.447550890168245 57.57247161350712) rotate(500.20660656119986)"><path class="outline" fill="#A5ABB6" stroke="none" d="M 25 1 L 27.18391450021651 1 L 27.18391450021651 -1 L 25 -1 Z M 83.8557895002165 1 L 86.03970400043302 1 L 86.03970400043302 4 L 94.03970400043302 0 L 86.03970400043302 -4 L 86.03970400043302 -1 L 83.8557895002165 -1 Z"/><text text-anchor="middle" pointer-events="none" font-size="8px" fill="#000000" x="55.51985200021651" y="3" transform="rotate(180 55.51985200021651 0)" font-family="sans-serif">MEMBER_OF</text></g><g class="relationship" transform="translate(-65.87988973601009 -10.288165144556267) rotate(471.9429742128607)"><path class="outline" fill="#A5ABB6" stroke="none" d="M 25 1 L 45.31356462312682 1 L 45.31356462312682 -1 L 25 -1 Z M 101.98543962312682 1 L 122.29900424625365 1 L 122.29900424625365 4 L 130.29900424625365 0 L 122.29900424625365 -4 L 122.29900424625365 -1 L 101.98543962312682 -1 Z"/><text text-anchor="middle" pointer-events="none" font-size="8px" fill="#000000" x="73.64950212312682" y="3" transform="rotate(180 73.64950212312682 0)" font-family="sans-serif">MEMBER_OF</text></g><g class="relationship" transform="translate(-65.87988973601009 -10.288165144556267) rotate(386.1923584657629)"><path class="outline" fill="#6DCE9E" stroke="none" d="M 25 1 L 82.14639940689666 1 L 82.14639940689666 -1 L 25 -1 Z M 133.63468065689665 1 L 190.78108006379333 1 L 190.78108006379333 4 L 198.78108006379333 0 L 190.78108006379333 -4 L 190.78108006379333 -1 L 133.63468065689665 -1 Z"/><text text-anchor="middle" pointer-events="none" font-size="8px" fill="#000000" x="107.89054003189666" y="3" font-family="sans-serif">WAS_BORN</text></g><g class="relationship" transform="translate(28.096852656276198 160.19688803198108) rotate(326.12692126246566)"><path class="outline" fill="#6DCE9E" stroke="none" d="M 25 1 L 34.58754186890468 1 L 34.58754186890468 -1 L 25 -1 Z M 86.07582311890468 1 L 95.66336498780936 1 L 95.66336498780936 4 L 103.66336498780936 0 L 95.66336498780936 -4 L 95.66336498780936 -1 L 86.07582311890468 -1 Z"/><text text-anchor="middle" pointer-events="none" font-size="8px" fill="#000000" x="60.33168249390468" y="3" font-family="sans-serif">WAS_BORN</text></g><g class="relationship" transform="translate(-32.447550890168245 57.57247161350712) rotate(370.46458022889306)"><path class="outline" fill="#6DCE9E" stroke="none" d="M 25 1 L 55.35644717474459 1 L 55.35644717474459 -1 L 25 -1 Z M 106.84472842474459 1 L 137.20117559948918 1 L 137.20117559948918 4 L 145.20117559948918 0 L 137.20117559948918 -4 L 137.20117559948918 -1 L 106.84472842474459 -1 Z"/><text text-anchor="middle" pointer-events="none" font-size="8px" fill="#000000" x="81.10058779974459" y="3" font-family="sans-serif">WAS_BORN</text></g><g class="relationship" transform="translate(-123.91257967851796 133.76039478547096) rotate(386.53479506454676)"><path class="outline" fill="#FFD86E" stroke="none" d="M 25 1 L 64.4075537180311 1 L 64.4075537180311 -1 L 25 -1 Z M 138.7200537180311 1 L 178.1276074360622 1 L 178.1276074360622 4 L 186.1276074360622 0 L 178.1276074360622 -4 L 178.1276074360622 -1 L 138.7200537180311 -1 Z"/><text text-anchor="middle" pointer-events="none" font-size="8px" fill="#000000" x="101.5638037180311" y="3" font-family="sans-serif">PARTICIPATES_IN</text></g></g><g class="layer nodes"><g class="node" transform="translate(64.97552664975439,228.0797984593454)"><circle class="outline" cx="0" cy="0" r="25" fill="#FF756E" stroke="#E06760" stroke-width="2px"/><text text-anchor="middle" pointer-events="none" font-family="sans-serif" dy="1.5625" font-size="25" fill="#FFFFFF"/><text text-anchor="middle" pointer-events="none" y="5" font-size="10px" fill="#FFFFFF" font-family="sans-serif"> League</text></g><g class="node" transform="translate(28.096852656276198,160.19688803198108)"><circle class="outline" cx="0" cy="0" r="25" fill="#FB95AF" stroke="#E0849B" stroke-width="2px"/><text text-anchor="middle" pointer-events="none" font-family="sans-serif" dy="1.5625" font-size="25" fill="#FFFFFF"/><text text-anchor="middle" pointer-events="none" y="5" font-size="10px" fill="#FFFFFF" font-family="sans-serif"> Player</text></g><g class="node" transform="translate(134.92273257706034,88.48571129406626)"><circle class="outline" cx="0" cy="0" r="25" fill="#FFD86E" stroke="#EDBA39" stroke-width="2px"/><text text-anchor="middle" pointer-events="none" font-family="sans-serif" dy="1.5625" font-size="25" fill="#604A0E"/><text text-anchor="middle" pointer-events="none" y="5" font-size="10px" fill="#604A0E" font-family="sans-serif"> Country</text></g><g class="node" transform="translate(-123.91257967851796,133.76039478547096)"><circle class="outline" cx="0" cy="0" r="25" fill="#6DCE9E" stroke="#60B58B" stroke-width="2px"/><text text-anchor="middle" pointer-events="none" font-family="sans-serif" dy="1.5625" font-size="25" fill="#FFFFFF"/><text text-anchor="middle" pointer-events="none" y="5" font-size="10px" fill="#FFFFFF" font-family="sans-serif"> Team</text></g><g class="node" transform="translate(-65.87988973601009,-10.288165144556267)"><circle class="outline" cx="0" cy="0" r="25" fill="#68BDF6" stroke="#5CA8DB" stroke-width="2px"/><text text-anchor="middle" pointer-events="none" font-family="sans-serif" dy="1.5625" font-size="25" fill="#FFFFFF"/><text text-anchor="middle" pointer-events="none" y="5" font-size="10px" fill="#FFFFFF" font-family="sans-serif"> Person</text></g><g class="node" transform="translate(-32.447550890168245,57.57247161350712)"><circle class="outline" cx="0" cy="0" r="25" fill="#DE9BF9" stroke="#BF85D6" stroke-width="2px"/><text text-anchor="middle" pointer-events="none" font-family="sans-serif" dy="1.5625" font-size="25" fill="#FFFFFF"/><text text-anchor="middle" pointer-events="none" y="5" font-size="10px" fill="#FFFFFF" font-family="sans-serif"> Coach</text></g></g></svg>